<?xml version="1.0" standalone="no"?>
<!DOCTYPE svg PUBLIC "-//W3C//DTD SVG 20010904//EN"
 "http://www.w3.org/TR/2001/REC-SVG-20010904/DTD/svg10.dtd">
<svg version="1.0" xmlns="http://www.w3.org/2000/svg"
 width="776.000000pt" height="600.000000pt" viewBox="0 0 776.000000 600.000000"
 preserveAspectRatio="xMidYMid meet">
<metadata>
Created by potrace 1.15, written by Peter Selinger 2001-2017
</metadata>
<g transform="translate(0.000000,600.000000) scale(0.100000,-0.100000)"
fill="#485c97" stroke="none">
<path d="M3753 5760 c-211 -30 -446 -139 -592 -275 -136 -127 -256 -328 -301
-504 -26 -102 -35 -304 -20 -428 43 -344 265 -639 604 -799 401 -189 868 -106
1196 215 133 130 240 320 277 494 17 81 22 311 10 426 -44 398 -399 768 -822
856 -96 20 -267 27 -352 15z"/>
<path d="M5350 3729 c-269 -24 -585 -102 -755 -187 -169 -84 -317 -233 -430
-432 -180 -316 -186 -784 -18 -1340 29 -95 80 -232 116 -312 13 -29 32 -74 41
-99 30 -83 164 -335 252 -476 164 -262 269 -394 436 -549 l102 -94 788 0 c433
0 788 2 788 5 0 3 -52 63 -116 133 -118 128 -301 353 -475 581 -113 148 -230
311 -224 311 2 0 -53 87 -121 193 -163 249 -304 531 -335 667 -28 123 -30 249
-6 312 22 56 79 109 146 134 41 16 101 18 572 22 l526 3 6 127 c4 70 7 326 7
570 l0 442 -602 -1 c-332 -1 -646 -5 -698 -10z"/>
<path d="M1120 3167 l0 -564 278 -6 c152 -4 374 -7 492 -7 304 0 379 -16 447
-94 43 -48 57 -98 57 -191 -2 -143 -42 -277 -147 -487 -51 -101 -114 -217
-141 -258 -27 -41 -85 -131 -129 -200 -119 -187 -150 -231 -276 -395 -177
-231 -461 -565 -565 -664 -20 -19 -36 -41 -36 -48 0 -11 146 -13 784 -13 l784
0 53 40 c150 112 313 307 483 577 90 143 242 429 250 470 2 11 28 71 56 133
194 424 282 965 214 1320 -53 283 -229 551 -461 707 -110 73 -323 150 -534
193 -219 45 -319 50 -981 50 l-628 0 0 -563z"/>
</g>
</svg>
